<?xml version="1.0" encoding="utf-8"?>
<!-- Generator: Adobe Illustrator 19.2.1, SVG Export Plug-In . SVG Version: 6.00 Build 0)  -->
<svg version="1.1" id="Layer_1" xmlns="http://www.w3.org/2000/svg" xmlns:xlink="http://www.w3.org/1999/xlink" x="0px" y="0px"
	 viewBox="0 0 100 100" style="enable-background:new 0 0 100 100;" xml:space="preserve">
<style type="text/css">
	.st0{fill:#00C5D0;}
	.st1{fill:#FFFFFF;}
</style>
<circle class="st0" cx="24" cy="19.4" r="45.2"/>
<g>
	<path class="st1" d="M41.1,34.7c0,2.6,0.2,5.4,0.5,8.7c-3.1-0.1-8.2-0.2-15.5-0.2c-8.7,0-15.2,0.1-19.6,0.2V42
		c1.6-0.1,2.8-0.2,3.6-0.5c0.7-0.3,1.2-0.8,1.5-1.6c0.3-0.8,0.4-2,0.4-3.7V2.6c0-1.7-0.1-2.9-0.4-3.7c-0.3-0.8-0.8-1.3-1.5-1.6
		C9.2-3,8.1-3.2,6.4-3.3v-1.4c4.4,0.1,11,0.2,19.6,0.2c6.6,0,11.4-0.1,14.2-0.2c-0.3,3-0.5,5.6-0.5,8c0,1.8,0.1,3.2,0.2,4.2h-1.6
		c-0.3-2.9-0.7-5.1-1.2-6.5c-0.5-1.4-1.3-2.5-2.5-3.1c-1.2-0.7-3-1-5.3-1h-5.6c-1.6,0-2.8,0.1-3.6,0.4c-0.7,0.3-1.2,0.8-1.5,1.5
		c-0.3,0.8-0.4,2-0.4,3.7v16h4.5c2.3,0,3.8-0.7,4.5-2c0.7-1.4,1.2-2.7,1.4-4.1c0.2-1.4,0.3-2.3,0.4-2.7h1.6
		c-0.2,2.2-0.2,4.4-0.2,6.4l0,3.2c0,2.3,0.1,5.5,0.4,9.6h-1.6c0-0.3-0.2-1.4-0.4-3.3c-0.2-1.9-0.8-3.3-1.8-4.3c-1-1-2.4-1.4-4.3-1.4
		h-4.5v16.3c0,1.7,0.1,2.9,0.4,3.7c0.3,0.8,0.8,1.3,1.5,1.5c0.7,0.3,1.9,0.4,3.6,0.4h5c2.8,0,5-0.4,6.4-1.1c1.5-0.8,2.5-2,3.2-3.6
		c0.7-1.7,1.2-4.1,1.5-7.3h1.6C41.2,31,41.1,32.6,41.1,34.7z"/>
</g>
<polyline class="st0" points="31.1,63.6 24,72.5 16.9,63.6 "/>
</svg>
